<svg width="93" height="93" viewBox="0 0 93 93" fill="none" xmlns="http://www.w3.org/2000/svg">
<path d="M91.5209 46.5C92.3378 46.5 93.0025 45.8374 92.9765 45.0209C92.651 34.7894 88.9565 24.9351 82.445 17.0007C75.6202 8.68465 66.123 2.99227 55.5717 0.893485C45.0204 -1.2053 34.0678 0.419365 24.5801 5.49066C15.0923 10.562 7.65652 18.7661 3.5396 28.7052C-0.577314 38.6443 -1.12061 49.7034 2.00227 59.9982C5.12516 70.293 11.721 79.1865 20.666 85.1633C29.6109 91.1402 40.3516 93.8306 51.0578 92.7761C61.2726 91.77 70.8531 87.4144 78.3179 80.4097C78.9136 79.8508 78.9122 78.9122 78.3346 78.3346C77.7569 77.7569 76.8219 77.7591 76.225 78.3168C69.245 84.8381 60.3015 88.8931 50.7678 89.8321C40.7427 90.8195 30.6854 88.3002 22.3095 82.7036C13.9336 77.107 7.75737 68.7793 4.83315 59.1395C1.90894 49.4996 2.41768 39.1441 6.27268 29.8373C10.1277 20.5305 17.0904 12.8483 25.9746 8.09962C34.8587 3.35095 45.1145 1.82964 54.9946 3.79491C64.8746 5.76017 73.7676 11.0904 80.1582 18.8774C86.2356 26.2827 89.6923 35.474 90.0166 45.0209C90.0444 45.8374 90.704 46.5 91.5209 46.5Z" fill="#000"/>
</svg>
