<svg width="20" height="24" viewBox="0 0 20 24" fill="none" xmlns="http://www.w3.org/2000/svg">
<path fill-rule="evenodd" clip-rule="evenodd" d="M10 0C10.5523 0 11 0.447715 11 1V23C11 23.5523 10.5523 24 10 24C9.44771 24 9 23.5523 9 23V1C9 0.447715 9.44771 0 10 0Z" fill="black"/>
<path fill-rule="evenodd" clip-rule="evenodd" d="M0.292893 13.2929C0.683417 12.9024 1.31658 12.9024 1.70711 13.2929L10 21.5858L18.2929 13.2929C18.6834 12.9024 19.3166 12.9024 19.7071 13.2929C20.0976 13.6834 20.0976 14.3166 19.7071 14.7071L10.7071 23.7071C10.3166 24.0976 9.68342 24.0976 9.29289 23.7071L0.292893 14.7071C-0.0976311 14.3166 -0.0976311 13.6834 0.292893 13.2929Z" fill="black"/>
</svg>
